<?xml version="1.0" encoding="UTF-8" standalone="no"?>
<svg
   xmlns:dc="http://purl.org/dc/elements/1.1/"
   xmlns:cc="http://creativecommons.org/ns#"
   xmlns:rdf="http://www.w3.org/1999/02/22-rdf-syntax-ns#"
   xmlns:svg="http://www.w3.org/2000/svg"
   xmlns="http://www.w3.org/2000/svg"
   xmlns:sodipodi="http://sodipodi.sourceforge.net/DTD/sodipodi-0.dtd"
   xmlns:inkscape="http://www.inkscape.org/namespaces/inkscape"
   sodipodi:docname="ThinkStation (2009).svg"
   inkscape:version="1.0 (4035a4fb49, 2020-05-01)"
   id="svg8"
   version="1.1"
   viewBox="0 0 1027.9825 275.72675"
   height="275.72675mm"
   width="1027.9825mm">
  <defs
     id="defs2" />
  <sodipodi:namedview
     inkscape:window-maximized="1"
     inkscape:window-y="-8"
     inkscape:window-x="-8"
     inkscape:window-height="705"
     inkscape:window-width="1366"
     inkscape:pagecheckerboard="true"
     showgrid="false"
     inkscape:document-rotation="0"
     inkscape:current-layer="layer1"
     inkscape:document-units="mm"
     inkscape:cy="493.05297"
     inkscape:cx="2013.0785"
     inkscape:zoom="0.24748737"
     inkscape:pageshadow="2"
     inkscape:pageopacity="0.0"
     borderopacity="1.0"
     bordercolor="#666666"
     pagecolor="#ffffff"
     id="base" />
  <metadata
     id="metadata5">
    <rdf:RDF>
      <cc:Work
         rdf:about="">
        <dc:format>image/svg+xml</dc:format>
        <dc:type
           rdf:resource="http://purl.org/dc/dcmitype/StillImage" />
        <dc:title></dc:title>
      </cc:Work>
    </rdf:RDF>
  </metadata>
  <g
     id="layer1"
     inkscape:groupmode="layer"
     inkscape:label="Layer 1">
    <g
       inkscape:label="Layer 1"
       id="layer1-2"
       transform="translate(427.23958,-12.89449)">
      <g
         aria-label="ThinkServer"
         id="text896"
         style="font-weight:500;font-size:352.777px;line-height:1.25;font-family:'Helvetica Ultra Compressed';-inkscape-font-specification:'Helvetica Ultra Compressed Medium';stroke-width:0.264583">
        <path
           d="m -427.23958,32.504686 v 32.808261 h 32.80827 V 283.68192 h 37.39436 V 65.312947 h 32.45548 V 32.504686 Z"
           style="stroke-width:0.264583"
           id="path898" />
        <path
           d="m -279.61894,32.504686 h -33.86659 V 283.68192 h 33.86659 V 120.69894 c 0,-5.64443 0.35278,-12.3472 8.81943,-12.3472 7.05554,0 7.40832,6.70277 7.40832,12.3472 v 162.98298 h 33.86659 V 115.76006 c 0,-21.166621 -0.35278,-36.336032 -26.1055,-36.336032 -9.1722,0 -18.3444,4.586101 -23.28328,14.11108 h -0.70556 z"
           style="stroke-width:0.264583"
           id="path900" />
        <path
           d="M -179.66177,283.68192 V 81.893467 h -33.86659 V 283.68192 Z"
           style="stroke-width:0.264583"
           id="path902"
           sodipodi:nodetypes="ccccc" />
        <path
           d="m -163.2797,283.68192 h 33.8666 V 120.69894 c 0,-5.64443 0.35277,-12.3472 8.81942,-12.3472 7.05554,0 7.40832,6.70277 7.40832,12.3472 v 162.98298 h 33.866592 V 115.76006 c 0,-21.166621 -0.352777,-36.336032 -26.105502,-36.336032 -9.1722,0 -18.3444,4.586101 -23.28328,14.11108 h -0.70555 V 81.893467 h -33.8666 z"
           style="stroke-width:0.264583"
           id="path904" />
        <path
           d="M -30.867034,283.68192 V 177.49604 h 1.411109 l 18.697181,106.18588 H 23.813403 L 3.3523363,172.90993 22.755072,81.893467 h -33.866593 l -18.344404,92.780353 h -1.411109 V 32.504686 H -64.733626 V 283.68192 Z"
           style="stroke-width:0.264583"
           id="path906" />
      </g>
      <path
         d="m -169.11748,40.38477 a 27.688413,27.49028 0 0 1 -27.68841,27.49028 27.688413,27.49028 0 0 1 -27.68842,-27.49028 27.688413,27.49028 0 0 1 27.68842,-27.490279 27.688413,27.49028 0 0 1 27.68841,27.490279 z"
         style="fill:#d40000;stroke:#000000;stroke-width:0;stroke-miterlimit:4;stroke-dasharray:none"
         id="path862" />
    </g>
    <g
       transform="translate(-309.41496,81.799726)"
       style="font-weight:bold;font-size:352.778px;line-height:1.25;font-family:'Helvetica Ultra Compressed';-inkscape-font-specification:'Helvetica Ultra Compressed Bold';stroke-width:0.264583"
       id="text44"
       aria-label="Station">
      <path
         id="path46"
         style="font-size:352.778px;stroke-width:0.264583"
         d="m 809.27225,93.738049 h -37.39447 v 57.855591 c 0,32.80836 25.7528,42.33337 48.68337,42.33337 23.28335,0 49.03614,-9.52501 49.03614,-42.33337 v -44.45003 c 0,-25.400013 -60.32504,-79.727828 -60.32504,-97.7195063 V -21.620362 c 0,-12.700008 3.88056,-15.522232 11.64168,-15.522232 7.40834,0 11.2889,2.822224 11.2889,15.522232 v 49.741701 h 37.39446 v -52.916703 c 0,-32.808355 -25.75279,-42.333362 -49.03614,-42.333362 -22.93057,0 -48.68337,9.525007 -48.68337,42.333362 v 35.983358 c 0,40.92225 60.32505,75.494495 60.32505,110.772296 v 26.45835 c 0,12.70001 -3.88056,15.52223 -11.2889,15.52223 -7.76112,0 -11.64168,-2.82222 -11.64168,-15.52223 z" />
      <path
         id="path48"
         style="font-size:352.778px;stroke-width:0.264583"
         d="m 925.68348,-49.137047 h -33.86669 v 36.336136 h -9.87778 v 26.811129 h 9.87778 V 162.17698 c 0,7.76112 4.58612,26.81113 25.40002,26.81113 h 19.40279 v -26.81113 h -3.52778 c -3.52778,0 -7.40834,-1.05833 -7.40834,-16.22778 V 14.010218 h 10.93612 v -26.811129 h -10.93612 z" />
      <path
         id="path50"
         style="font-size:352.778px;stroke-width:0.264583"
         d="m 996.22807,154.41587 c 0,4.58611 -3.52778,7.40834 -8.11389,8.11389 -4.58612,0.35278 -7.40834,-2.46944 -8.1139,-6.70278 v -50.80003 c 0,-10.583345 6.70279,-14.816681 16.22779,-20.461129 z M 1030.0948,18.596332 c 0,-20.8139028 -16.2278,-33.866689 -41.98062,-33.866689 -25.7528,0 -41.98059,13.0527862 -41.98059,33.866689 v 40.569472 h 34.21947 V 32.707453 c 0,-7.055561 -1.76389,-23.2833493 8.1139,-23.2833493 8.11389,0 6.70278,14.1111203 6.70278,20.1083473 0,51.50559 -49.03615,29.986131 -49.03615,70.908379 v 67.73338 c 0,15.16946 8.1139,23.28335 22.93057,23.28335 14.11113,0 19.4028,-4.58611 26.45836,-16.22779 h 0.70555 c 0,4.58612 0,9.52501 2.11667,13.75834 h 31.75006 z" />
      <path
         id="path52"
         style="font-size:352.778px;stroke-width:0.264583"
         d="m 1082.7799,-49.137047 h -33.8667 v 36.336136 h -9.8777 v 26.811129 h 9.8777 V 162.17698 c 0,7.76112 4.5862,26.81113 25.4001,26.81113 h 19.4028 v -26.81113 h -3.5278 c -3.5278,0 -7.4084,-1.05833 -7.4084,-16.22778 V 14.010218 h 10.9362 v -26.811129 h -10.9362 z" />
      <path
         id="path54"
         style="font-size:352.778px;stroke-width:0.264583"
         d="M 1139.2134,188.98811 V -12.800911 h -33.8667 V 188.98811 Z m 0,-251.177943 h -33.8667 v 35.983357 h 33.8667 z" />
      <path
         id="path56"
         style="font-size:352.778px;stroke-width:0.264583"
         d="m 1239.5567,18.596332 c 0,-20.8139028 -16.2278,-33.866689 -41.9806,-33.866689 -25.7528,0 -41.9806,13.0527862 -41.9806,33.866689 V 157.59087 c 0,20.8139 16.2278,33.86669 41.9806,33.86669 25.7528,0 41.9806,-13.05279 41.9806,-33.86669 z M 1205.69,156.88531 c 0,9.17223 -3.175,9.87779 -8.1139,9.87779 -4.9389,0 -8.1139,-0.70556 -8.1139,-9.87779 V 19.301888 c 0,-9.172228 3.175,-9.8777843 8.1139,-9.8777843 4.9389,0 8.1139,0.7055563 8.1139,9.8777843 z" />
      <path
         id="path58"
         style="font-size:352.778px;stroke-width:0.264583"
         d="m 1253.4363,188.98811 h 33.8667 V 26.00467 c 0,-5.644448 0.3528,-12.34723 8.8194,-12.34723 7.0556,0 7.4084,6.702782 7.4084,12.34723 v 162.98344 h 33.8667 V 21.065778 c 0,-21.16668071 -0.3528,-36.336135 -26.1056,-36.336135 -9.1722,0 -18.3445,4.586114 -23.2834,14.1111202 h -0.7055 V -12.800911 h -33.8667 z" />
    </g>
  </g>
</svg>
